<svg width="1200" height="800" viewBox="0 0 1200 800" fill="none" xmlns="http://www.w3.org/2000/svg">
<path d="M631.144 604.476L628.36 597.365H619.403L616.658 604.476H614.025L622.859 582.036H625.047L633.833 604.476H631.144ZM627.556 595.026L624.952 588.105C624.616 587.229 624.27 586.155 623.91 584.886C623.688 585.859 623.371 586.931 622.954 588.105L620.322 595.026H627.556Z" fill="black"/>
<path d="M636.902 604.476V582.131H639.506V604.476H636.902Z" fill="black"/>
<path d="M667.812 604.476L665.028 597.365H656.071L653.326 604.476H650.693L659.527 582.036H661.715L670.501 604.476H667.812ZM664.224 595.026L661.62 588.105C661.284 587.229 660.938 586.155 660.578 584.886C660.356 585.859 660.039 586.931 659.622 588.105L656.99 595.026H664.224Z" fill="black"/>
<path d="M683.999 599.903C683.999 601.463 683.417 602.665 682.257 603.51C681.095 604.358 679.466 604.779 677.371 604.779C675.149 604.779 673.416 604.429 672.173 603.728V601.371C672.973 601.782 673.835 602.104 674.758 602.336C675.686 602.571 676.576 602.687 677.428 602.687C678.754 602.687 679.772 602.476 680.487 602.052C681.199 601.631 681.556 600.987 681.556 600.121C681.556 599.472 681.272 598.916 680.704 598.454C680.141 597.988 679.04 597.439 677.4 596.807C675.84 596.227 674.732 595.718 674.076 595.282C673.418 594.847 672.931 594.354 672.609 593.805C672.287 593.256 672.126 592.6 672.126 591.836C672.126 590.472 672.68 589.398 673.792 588.607C674.903 587.812 676.427 587.414 678.366 587.414C680.165 587.414 681.926 587.783 683.649 588.522L682.749 590.586C681.069 589.892 679.544 589.545 678.176 589.545C676.976 589.545 676.07 589.734 675.459 590.113C674.846 590.487 674.54 591.003 674.54 591.665C674.54 592.115 674.654 592.496 674.881 592.811C675.113 593.128 675.483 593.431 675.989 593.72C676.5 594.004 677.478 594.416 678.924 594.951C680.913 595.678 682.252 596.407 682.948 597.138C683.649 597.872 683.999 598.793 683.999 599.903Z" fill="black"/>
<path d="M710.695 604.476L707.911 597.365H698.954L696.208 604.476H693.576L702.41 582.036H704.597L713.384 604.476H710.695ZM707.106 595.026L704.503 588.105C704.167 587.229 703.821 586.154 703.461 584.886C703.239 585.858 702.921 586.931 702.505 588.105L699.873 595.026H707.106Z" fill="black"/>
<path d="M724.583 582.131H730.898C733.864 582.131 736.011 582.576 737.337 583.466C738.662 584.351 739.325 585.748 739.325 587.66C739.325 588.986 738.956 590.082 738.217 590.946C737.479 591.805 736.4 592.361 734.979 592.612V592.764C738.374 593.346 740.073 595.129 740.073 598.113C740.073 600.116 739.396 601.678 738.047 602.8C736.695 603.918 734.809 604.476 732.385 604.476H724.583V582.131ZM727.187 591.694H731.467C733.296 591.694 734.615 591.408 735.424 590.832C736.231 590.259 736.636 589.289 736.636 587.926C736.636 586.671 736.184 585.764 735.282 585.208C734.385 584.654 732.958 584.375 731.003 584.375H727.187V591.694ZM727.187 593.9V602.261H731.845C733.649 602.261 735.008 601.915 735.917 601.219C736.83 600.518 737.29 599.425 737.29 597.934C737.29 596.551 736.821 595.536 735.888 594.885C734.96 594.229 733.542 593.9 731.637 593.9H727.187Z" fill="black"/>
<path d="M746.875 587.727V598.596C746.875 599.96 747.183 600.98 747.803 601.655C748.428 602.324 749.404 602.658 750.729 602.658C752.476 602.658 753.754 602.18 754.564 601.219C755.378 600.26 755.785 598.698 755.785 596.532V587.727H758.323V604.476H756.23L755.861 602.232H755.728C755.203 603.054 754.481 603.686 753.56 604.126C752.637 604.561 751.586 604.779 750.407 604.779C748.367 604.779 746.84 604.296 745.825 603.33C744.814 602.365 744.31 600.817 744.31 598.682V587.727H746.875Z" fill="black"/>
<path d="M775.106 602.232H774.974C773.799 603.932 772.048 604.779 769.719 604.779C767.522 604.779 765.813 604.031 764.596 602.535C763.384 601.039 762.778 598.909 762.778 596.144C762.778 593.386 763.387 591.244 764.606 589.715C765.829 588.181 767.534 587.414 769.719 587.414C771.984 587.414 773.726 588.243 774.945 589.895H775.144L775.03 588.683L774.974 587.509V580.692H777.511V604.476H775.447L775.106 602.232ZM770.031 602.658C771.766 602.658 773.023 602.189 773.799 601.247C774.581 600.3 774.974 598.781 774.974 596.684V596.144C774.974 593.772 774.578 592.08 773.79 591.069C772.999 590.053 771.738 589.544 770.003 589.544C768.519 589.544 767.38 590.122 766.585 591.277C765.794 592.432 765.401 594.066 765.401 596.172C765.401 598.312 765.792 599.929 766.575 601.02C767.363 602.114 768.516 602.658 770.031 602.658Z" fill="black"/>
<path d="M794.287 602.232H794.154C792.98 603.931 791.228 604.779 788.899 604.779C786.703 604.779 784.994 604.031 783.777 602.535C782.565 601.039 781.959 598.908 781.959 596.144C781.959 593.386 782.567 591.244 783.786 589.715C785.01 588.181 786.714 587.414 788.899 587.414C791.165 587.414 792.907 588.242 794.126 589.895H794.325L794.211 588.683L794.154 587.508V580.691H796.692V604.476H794.628L794.287 602.232ZM789.212 602.658C790.947 602.658 792.204 602.189 792.98 601.247C793.761 600.3 794.154 598.781 794.154 596.683V596.144C794.154 593.772 793.759 592.079 792.971 591.069C792.18 590.053 790.918 589.544 789.183 589.544C787.699 589.544 786.561 590.122 785.765 591.277C784.975 592.432 784.582 594.065 784.582 596.172C784.582 598.312 784.972 599.929 785.756 601.02C786.544 602.113 787.697 602.658 789.212 602.658Z" fill="black"/>
<path d="M799.411 587.726H802.138L805.802 597.28C806.609 599.458 807.109 601.029 807.298 601.995H807.421C807.554 601.479 807.831 600.592 808.255 599.335C808.676 598.073 810.058 594.203 812.402 587.726H815.129L807.923 606.796C807.208 608.682 806.375 610.02 805.424 610.81C804.477 611.598 803.307 611.994 801.92 611.994C801.144 611.994 800.379 611.909 799.629 611.738V609.702C800.19 609.821 800.815 609.882 801.504 609.882C803.246 609.882 804.489 608.907 805.234 606.957L806.172 604.571L799.411 587.726Z" fill="black"/>
<path fill-rule="evenodd" clip-rule="evenodd" d="M368.438 226.737L564.108 273.24L535.652 434.226L528.363 436.302L385.453 381.314L368.438 226.737ZM764.042 120.327L781.881 299.044L858.763 181.182L764.042 120.327ZM738.018 392.766L673.231 492.119L705.123 504.4L782.298 449.531L775.596 382.324L738.018 392.766Z" fill="url(#paint0_linear_528_2)"/>
<path fill-rule="evenodd" clip-rule="evenodd" d="M378.456 451.308L332.636 376.569L371.935 391.694L378.456 451.308ZM320.129 356.226L370.096 375.447L356.404 250.403L320.129 356.164V356.226ZM380.589 214.698L566.651 258.944L594.396 101.879L380.589 214.698ZM610.102 96.5368L580.822 262.329L768.069 306.874L748.685 112.671L610.102 96.5368ZM864.037 199.692L790.596 312.211L880.397 333.564L864.037 199.692ZM859.828 343.651L784.548 325.739L788.339 363.639L859.828 343.651ZM728.827 380.247L767.121 321.587L578.272 276.681L551.182 429.955L728.827 380.247ZM716.799 398.695L551.007 445.08L659.301 486.781L716.799 398.695ZM504.888 442.885L387.167 397.567L395.465 473.496L504.888 442.885ZM527.651 451.607L428.959 479.188L526.111 488.322L532.272 453.384L527.651 451.607ZM546.088 458.726L540.632 489.687L650.703 500.011L651.239 499.176L546.088 458.726ZM641.694 513.827L538.082 504.101L518.106 617.218L573.59 618.228L641.694 513.827ZM750.05 374.318L774.117 367.616L771.505 341.513L750.05 374.318Z" fill="url(#paint1_linear_528_2)"/>
<path d="M467.677 633.889L448.299 675.992L429.124 633.889H414.618V694.76H428.01V658.44L444.443 694.76H452.154L468.691 658.541V694.76H482.081V633.889H467.677Z" fill="black"/>
<path d="M523.059 695.571C540.408 695.571 554.306 681.571 554.306 664.324C554.306 647.078 540.408 633.078 523.059 633.078C505.812 633.078 491.812 647.078 491.812 664.324C491.812 681.571 505.812 695.571 523.059 695.571ZM523.059 682.484C512.813 682.484 505.001 674.571 505.001 664.324C505.001 654.078 512.813 646.165 523.059 646.165C533.407 646.165 541.219 654.078 541.219 664.324C541.219 674.571 533.407 682.484 523.059 682.484Z" fill="black"/>
<path d="M599.243 633.889H565.865V645.76H585.851V677.411C585.851 681.063 583.214 683.804 579.865 683.804C576.821 683.804 574.489 681.571 573.98 678.426L560.792 682.281C562.112 690.5 568.706 695.571 579.865 695.571C592.344 695.571 599.243 689.18 599.243 679.138V633.889Z" fill="black"/>
<path d="M639.31 695.571C656.659 695.571 670.557 681.571 670.557 664.324C670.557 647.077 656.659 633.078 639.31 633.078C622.063 633.078 608.063 647.077 608.063 664.324C608.063 681.571 622.063 695.571 639.31 695.571ZM639.31 682.484C629.064 682.484 621.252 674.57 621.252 664.324C621.252 654.078 629.064 646.164 639.31 646.164C649.658 646.164 657.47 654.078 657.47 664.324C657.47 674.57 649.658 682.484 639.31 682.484Z" fill="black"/>
<path d="M741.969 694.76H756.274L734.36 633.889H719.346L697.433 694.76H711.737L715.491 683.296H738.216L741.969 694.76ZM719.043 672.137L726.853 647.991L734.665 672.137H719.043Z" fill="black"/>
<path d="M761.439 694.76H774.831V633.889H761.439V694.76Z" fill="black"/>
<defs>
<linearGradient id="paint0_linear_528_2" x1="613.601" y1="120.327" x2="613.601" y2="504.4" gradientUnits="userSpaceOnUse">
<stop stop-color="#F8511C"/>
<stop offset="1" stop-color="#FA8C3E"/>
</linearGradient>
<linearGradient id="paint1_linear_528_2" x1="600.263" y1="96.5368" x2="600.263" y2="618.228" gradientUnits="userSpaceOnUse">
<stop stop-color="#003753"/>
<stop offset="1" stop-color="#00B3FF" stop-opacity="0.83"/>
</linearGradient>
</defs>
</svg>
